<svg xmlns="http://www.w3.org/2000/svg" id="Layer_1" data-name="Layer 1" width="31.88" height="32" viewBox="0 0 400 400"><defs><style>.cls-1,.cls-8{fill:#152f55;}.cls-2{fill:#fdb517;}.cls-3{fill:#bde1f7;}.cls-4{fill:#00a9db;}.cls-5{fill:#0e497b;}.cls-6{fill:#026aac;}.cls-7{fill:#ffcb18;}.cls-8{font-size:25.27px;font-family:Gibson-Regular, Gibson;}.cls-9{letter-spacing:-0.01em;}</style></defs><polygon class="cls-3" points="197 187.02 182.2 195.38 162.97 184.44 162.97 167.39 197 187.02"/><polygon class="cls-4" points="128.94 187.02 143.75 195.38 162.97 184.44 162.97 167.39 128.94 187.02"/><polygon class="cls-5" points="128.7 226.25 143.7 217.88 162.8 228.75 162.73 245.88 128.7 226.25"/><polygon class="cls-2" points="182.34 234.86 182.24 217.88 205.91 231.28 205.83 248.41 182.34 234.86"/><polygon class="cls-6" points="128.94 187.02 143.75 195.38 143.7 217.88 128.67 226.3 128.94 187.02"/><polygon class="cls-7" points="197 187.02 182.22 195.38 182.24 217.88 197.28 226.43 197 187.02"/><polygon class="cls-2" points="162.8 206.89 162.8 189.57 148.15 198.23 162.8 206.89"/><polygon class="cls-5" points="148.15 198.23 162.8 206.89 162.8 189.57 148.15 198.23"/><polygon class="cls-2" points="148.15 198.23 162.72 206.84 148.35 215.25 148.15 198.23"/><polygon class="cls-6" points="177.46 198.23 162.8 206.89 162.8 189.57 177.46 198.23"/><polygon class="cls-7" points="148.32 215.24 162.72 206.84 162.8 223.88 148.32 215.24"/><polygon class="cls-3" points="177.26 215.24 162.72 206.84 162.8 223.88 177.26 215.24"/><polygon class="cls-4" points="177.46 198.23 162.8 206.89 177.26 215.25 177.46 198.23"/></svg>