<?xml version="1.0" encoding="utf-8"?>
<!-- Generator: Adobe Illustrator 27.8.0, SVG Export Plug-In . SVG Version: 6.00 Build 0)  -->
<svg version="1.1" id="Layer_1" xmlns="http://www.w3.org/2000/svg" xmlns:xlink="http://www.w3.org/1999/xlink" x="0px" y="0px"
	 viewBox="0 0 426.4 309.3" style="enable-background:new 0 0 426.4 309.3;" xml:space="preserve">
<style type="text/css">

</style>
<polygon class="st0" points="214.7,282.3 214.7,133.2 115.6,133.2 "/>
<polygon class="st1" points="214.7,60.3 130.1,60.3 214.7,133.2 "/>
<polygon class="st2" points="115.6,133.2 130.1,60.3 214.7,133.2 "/>
<polygon class="st3" points="214.7,60.3 187.9,47.1 130.1,60.3 "/>
<polygon class="st2" points="214.7,282.3 39.2,103.4 115.6,133.2 "/>
<polygon class="st1" points="130.1,60.3 39.2,103.4 115.6,133.2 "/>
<polygon class="st2" points="39.2,103.4 103.2,37.2 130.1,60.3 "/>
<polygon class="st3" points="187.9,47.1 103.2,37.2 130.1,60.3 "/>
<polygon class="st3" points="103.2,37.2 214.7,27.2 187.9,47.1 "/>
<polygon class="st4" points="214.7,282.3 214.7,133.2 313.9,133.2 "/>
<polygon class="st5" points="214.7,60.3 299.4,60.3 214.7,133.2 "/>
<polygon class="st0" points="313.9,133.2 299.4,60.3 214.7,133.2 "/>
<polygon class="st6" points="214.7,60.3 241.6,47.1 299.4,60.3 "/>
<polygon class="st7" points="214.7,282.3 390.3,103.4 313.9,133.2 "/>
<polygon class="st4" points="299.4,60.3 390.3,103.4 313.9,133.2 "/>
<polygon class="st0" points="390.3,103.4 326.3,37.2 299.4,60.3 "/>
<polygon class="st8" points="241.6,47.1 326.3,37.2 299.4,60.3 "/>
<polygon class="st6" points="326.3,37.2 214.7,27.2 241.6,47.1 "/>
<polygon class="st8" points="187.9,47.1 214.7,27.2 241.6,47.1 214.7,60.3 "/>
<g>
	<path class="st9" d="M103,47.6c4.8,0,8.7-3.9,8.7-8.7c0-4.8-3.9-8.7-8.7-8.7s-8.7,3.9-8.7,8.7C94.3,43.7,98.2,47.6,103,47.6"/>
	<path class="st9" d="M103,50.6c-6.4,0-11.7-5.2-11.7-11.7s5.2-11.7,11.7-11.7c6.4,0,11.7,5.2,11.7,11.7S109.4,50.6,103,50.6z
		 M103,28.5c-5.7,0-10.4,4.7-10.4,10.4s4.7,10.4,10.4,10.4c5.7,0,10.4-4.7,10.4-10.4S108.7,28.5,103,28.5z"/>
	<path class="st9" d="M326.8,47.6c4.8,0,8.7-3.9,8.7-8.7c0-4.8-3.9-8.7-8.7-8.7s-8.7,3.9-8.7,8.7S322,47.6,326.8,47.6"/>
	<path class="st9" d="M326.8,50.6c-6.4,0-11.7-5.2-11.7-11.7s5.2-11.7,11.7-11.7s11.7,5.2,11.7,11.7S333.3,50.6,326.8,50.6z
		 M326.8,28.5c-5.7,0-10.4,4.7-10.4,10.4s4.7,10.4,10.4,10.4s10.4-4.7,10.4-10.4S332.6,28.5,326.8,28.5z"/>
	<path class="st9" d="M388.5,113.5c4.8,0,8.7-3.9,8.7-8.7c0-4.8-3.9-8.7-8.7-8.7s-8.7,3.9-8.7,8.7
		C379.8,109.6,383.7,113.5,388.5,113.5"/>
	<path class="st9" d="M388.5,116.5c-6.4,0-11.7-5.2-11.7-11.7s5.2-11.7,11.7-11.7s11.7,5.2,11.7,11.7S395,116.5,388.5,116.5z
		 M388.5,94.4c-5.7,0-10.4,4.7-10.4,10.4s4.7,10.4,10.4,10.4c5.7,0,10.4-4.7,10.4-10.4S394.3,94.4,388.5,94.4z"/>
	<path class="st9" d="M39.2,113.5c4.8,0,8.7-3.9,8.7-8.7c0-4.8-3.9-8.7-8.7-8.7s-8.7,3.9-8.7,8.7C30.5,109.6,34.4,113.5,39.2,113.5"
		/>
	<path class="st9" d="M39.2,116.5c-6.4,0-11.7-5.2-11.7-11.7s5.2-11.7,11.7-11.7s11.7,5.2,11.7,11.7S45.6,116.5,39.2,116.5z
		 M39.2,94.4c-5.7,0-10.4,4.7-10.4,10.4s4.7,10.4,10.4,10.4s10.4-4.7,10.4-10.4S44.9,94.4,39.2,94.4z"/>
	<path class="st9" d="M216.1,291c4.8,0,8.7-3.9,8.7-8.7c0-4.8-3.9-8.7-8.7-8.7s-8.7,3.9-8.7,8.7C207.4,287.1,211.3,291,216.1,291"/>
	<path class="st9" d="M216.1,294c-6.4,0-11.7-5.2-11.7-11.7s5.2-11.7,11.7-11.7c6.4,0,11.7,5.2,11.7,11.7S222.5,294,216.1,294z
		 M216.1,271.9c-5.7,0-10.4,4.7-10.4,10.4s4.7,10.4,10.4,10.4s10.4-4.7,10.4-10.4S221.9,271.9,216.1,271.9z"/>
</g>
<g>
	<g class="st10">
		<g>
			<g>
				<defs>
					<rect id="SVGID_1_" x="156.2" y="99.5" width="115.3" height="105.3"/>
				</defs>
				<clipPath id="SVGID_00000069389745432376306500000010666004258969912708_">
					<use xlink:href="#SVGID_1_"  style="overflow:visible;"/>
				</clipPath>
				<path style="clip-path:url(#SVGID_00000069389745432376306500000010666004258969912708_);fill:#FFFFFF;" d="M213.9,106.5
					c-26.9,0-48.6,21.8-48.6,48.6s21.8,48.6,48.6,48.6s48.6-21.8,48.6-48.6S240.7,106.5,213.9,106.5"/>
			</g>
		</g>
	</g>
	<path class="st12" d="M160.2,155.5h0.6c0-14.6,5.9-27.9,15.5-37.5c9.6-9.6,22.9-15.5,37.5-15.5c14.6,0,27.9,5.9,37.5,15.5
		c9.6,9.6,15.5,22.8,15.5,37.5c0,14.6-5.9,27.9-15.5,37.5c-9.6,9.6-22.9,15.5-37.5,15.5s-27.9-5.9-37.5-15.5
		c-9.6-9.6-15.5-22.9-15.5-37.5H160.2h-0.6c0,29.9,24.3,54.2,54.2,54.2c29.9,0,54.2-24.3,54.2-54.2s-24.3-54.2-54.2-54.2
		c-29.9,0-54.2,24.3-54.2,54.2H160.2z"/>
</g>
<text transform="matrix(1 0 0 1 234.1006 145.6056)" class="st13 st14 st15"> </text>
<text transform="matrix(1 0 0 1 231.3374 156.4054)" class="st13 st14 st15"> </text>
<path class="st9" d="M167.2,192c4.8,0,8.7-3.9,8.7-8.7c0-4.8-3.9-8.7-8.7-8.7c-4.8,0-8.7,3.9-8.7,8.7
	C158.6,188.1,162.5,192,167.2,192"/>
<path class="st9" d="M167.2,195c-6.4,0-11.7-5.2-11.7-11.7s5.2-11.7,11.7-11.7s11.7,5.2,11.7,11.7S173.7,195,167.2,195z
	 M167.2,172.9c-5.7,0-10.4,4.7-10.4,10.4s4.7,10.4,10.4,10.4s10.4-4.7,10.4-10.4S173,172.9,167.2,172.9z"/>
</svg>
