<?xml version="1.0" encoding="utf-8"?>
<!-- Generator: Adobe Illustrator 27.8.0, SVG Export Plug-In . SVG Version: 6.00 Build 0)  -->
<svg version="1.1" id="Layer_1" xmlns="http://www.w3.org/2000/svg" xmlns:xlink="http://www.w3.org/1999/xlink" x="0px" y="0px"
	 viewBox="0 0 576 396.7" style="enable-background:new 0 0 576 396.7;" xml:space="preserve">
<style type="text/css">
	.st0{fill:none;stroke:#BDE3F9;stroke-width:1.26;}
	.st1{fill:#0DA6D9;}
	.st2{fill:#79D0E6;}
	.st3{fill:#4FBFE5;}
	.st4{fill:#E0EBF0;}
	.st5{fill:#0E6AAD;}
	.st6{fill:#3EC1E4;}
	.st7{fill:#BADEF5;}
	.st8{fill:#142F55;}
	.st9{fill:#D1E8F5;}
	.st10{fill:#FDB517;}
	.st11{fill:none;stroke:#FDB517;stroke-width:1.26;}
	.st12{fill:#231F20;}
	.st13{font-family:'Gibson-Light';}
	.st14{font-size:9px;}
	.st15{fill:#0EA8DC;}
	.st16{font-family:'Gibson-Medium';}
	.st17{font-size:13px;}
	.st18{opacity:0.5;}
	.st19{clip-path:url(#SVGID_00000169518020266618345960000013905074493068899258_);fill:#FFFFFF;}
	.st20{font-family:'Gibson-SemiBold';}
	.st21{font-size:10px;}
	.st22{fill:none;stroke:#142F55;stroke-width:0.75;stroke-miterlimit:10;}
	.st23{fill:#FCB517;}
	.st24{fill:none;}
	.st25{fill:#FFCB18;}
</style>
<text transform="matrix(1 0 0 1 189.2802 -12.3232)" class="st12 st13 st14"> </text>
<g>
	<line class="st0" x1="95.6" y1="143.2" x2="76.8" y2="143.2"/>
	<line class="st0" x1="77.1" y1="130.4" x2="77.1" y2="156"/>
	<line class="st0" x1="153" y1="72.9" x2="139.2" y2="60.1"/>
	<line class="st0" x1="139.5" y1="47.3" x2="139.5" y2="72.9"/>
	<line class="st0" x1="389.3" y1="72.9" x2="403.1" y2="60.1"/>
	<line class="st0" x1="402.8" y1="47.3" x2="402.8" y2="72.9"/>
	<line class="st0" x1="139.7" y1="194.3" x2="139.7" y2="219.9"/>
	<line class="st0" x1="403.7" y1="194.3" x2="403.7" y2="219.9"/>
	<line class="st0" x1="468.3" y1="143.1" x2="449.5" y2="143.1"/>
	<polygon class="st1" points="271.9,320.6 271.9,171.5 172.7,171.5 	"/>
	<polygon class="st2" points="271.9,98.6 187.2,98.6 271.9,171.5 	"/>
	<polygon class="st3" points="172.7,171.5 187.2,98.6 271.9,171.5 	"/>
	<polygon class="st4" points="271.9,98.6 245,85.4 187.2,98.6 	"/>
	<polygon class="st3" points="271.9,320.6 96.3,141.7 172.7,171.5 	"/>
	<polygon class="st2" points="187.2,98.6 96.3,141.7 172.7,171.5 	"/>
	<polygon class="st3" points="96.3,141.7 160.3,75.4 187.2,98.6 	"/>
	<polygon class="st4" points="245,85.4 160.3,75.4 187.2,98.6 	"/>
	<polygon class="st4" points="160.3,75.4 271.9,65.5 245,85.4 	"/>
	<polygon class="st5" points="271.9,320.6 271.9,171.5 371,171.5 	"/>
	<polygon class="st6" points="271.9,98.6 356.5,98.6 271.9,171.5 	"/>
	<polygon class="st1" points="371,171.5 356.5,98.6 271.9,171.5 	"/>
	<polygon class="st7" points="271.9,98.6 298.7,85.4 356.5,98.6 	"/>
	<polygon class="st8" points="271.9,320.6 447.4,141.7 371,171.5 	"/>
	<polygon class="st5" points="356.5,98.6 447.4,141.7 371,171.5 	"/>
	<polygon class="st1" points="447.4,141.7 383.4,75.4 356.5,98.6 	"/>
	<polygon class="st9" points="298.7,85.4 383.4,75.4 356.5,98.6 	"/>
	<polygon class="st7" points="383.4,75.4 271.9,65.5 298.7,85.4 	"/>
	<polygon class="st9" points="245,85.4 271.9,65.5 298.7,85.4 271.9,98.6 	"/>
	<g>
		<path class="st10" d="M160.1,85.9c4.8,0,8.7-3.9,8.7-8.7c0-4.8-3.9-8.7-8.7-8.7s-8.7,3.9-8.7,8.7C151.4,82,155.3,85.9,160.1,85.9"
			/>
		<circle class="st11" cx="160.1" cy="77.2" r="11"/>
		<path class="st10" d="M383.9,85.9c4.8,0,8.7-3.9,8.7-8.7c0-4.8-3.9-8.7-8.7-8.7s-8.7,3.9-8.7,8.7C375.3,82,379.2,85.9,383.9,85.9"
			/>
		<circle class="st11" cx="383.9" cy="77.2" r="11"/>
		<path class="st10" d="M445.6,151.8c4.8,0,8.7-3.9,8.7-8.7c0-4.8-3.9-8.7-8.7-8.7s-8.7,3.9-8.7,8.7
			C436.9,147.9,440.8,151.8,445.6,151.8"/>
		<circle class="st11" cx="445.6" cy="143.1" r="11"/>
		<g>
			<path class="st10" d="M96.3,151.8c4.8,0,8.7-3.9,8.7-8.7c0-4.8-3.9-8.7-8.7-8.7s-8.7,3.9-8.7,8.7
				C87.6,147.9,91.5,151.8,96.3,151.8"/>
			<circle class="st11" cx="96.3" cy="143.1" r="11"/>
		</g>
		<path class="st10" d="M273.2,329.3c4.8,0,8.7-3.9,8.7-8.7c0-4.8-3.9-8.7-8.7-8.7s-8.7,3.9-8.7,8.7
			C264.5,325.4,268.4,329.3,273.2,329.3"/>
		<circle class="st11" cx="273.2" cy="320.6" r="11"/>
	</g>
	<text transform="matrix(1 0 0 1 164.7251 36.5469)" class="st12 st13 st14"> </text>
	<text transform="matrix(1 0 0 1 223.0867 353.3301)"><tspan x="0" y="0" class="st15 st16 st17"> Human Resources  </tspan><tspan x="-39.5" y="13.6" class="st15 st16 st17">Information System &amp; Enterprise  </tspan><tspan x="26.5" y="27.2" class="st15 st16 st17">Platforms</tspan></text>
	<text transform="matrix(1 0 0 1 14.8244 139.4461)"><tspan x="0" y="0" class="st15 st16 st17">Extended  </tspan><tspan x="-2.7" y="13.6" class="st15 st16 st17">Workforce</tspan></text>
	<text transform="matrix(1 0 0 1 21.9715 204.2187)"><tspan x="0" y="0" class="st15 st16 st17">Workforce Planning </tspan><tspan x="33.9" y="13.6" class="st15 st16 st17">&amp; Intelligence</tspan></text>
	<text transform="matrix(1 0 0 1 408.0152 204.2184)"><tspan x="0" y="0" class="st15 st16 st17">Performance </tspan><tspan x="0" y="13.6" class="st15 st16 st17">Management</tspan></text>
	<text transform="matrix(1 0 0 1 100.4915 57.4045)"><tspan x="0" y="0" class="st15 st16 st17">Talent </tspan><tspan x="-29" y="13.6" class="st15 st16 st17">Acquisition</tspan></text>
	<text transform="matrix(1 0 0 1 408.1555 57.4045)"><tspan x="0" y="0" class="st15 st16 st17">Talent </tspan><tspan x="0" y="13.6" class="st15 st16 st17">Management</tspan></text>
	<text transform="matrix(1 0 0 1 474.2325 139.4461)"><tspan x="0" y="0" class="st15 st16 st17">Learning  </tspan><tspan x="0" y="13.6" class="st15 st16 st17">&amp; Development</tspan></text>
	<g>
		<g class="st18">
			<g>
				<defs>
					<rect id="SVGID_1_" x="213.3" y="121.7" width="115.3" height="105.3"/>
				</defs>
				<clipPath id="SVGID_00000122699596049723729890000006212783203728288166_">
					<use xlink:href="#SVGID_1_"  style="overflow:visible;"/>
				</clipPath>
				<path style="clip-path:url(#SVGID_00000122699596049723729890000006212783203728288166_);fill:#FFFFFF;" d="M271,128.7
					c-26.9,0-48.6,21.8-48.6,48.6c0,26.9,21.8,48.6,48.6,48.6s48.6-21.8,48.6-48.6C319.6,150.5,297.8,128.7,271,128.7"/>
			</g>
		</g>
	</g>
	<g>
		<text transform="matrix(1 0 0 1 240.4953 158.2657)"><tspan x="0" y="0" class="st12 st20 st21">W</tspan><tspan x="9.6" y="0" class="st12 st20 st21">ORK</tspan><tspan x="29.8" y="0" class="st12 st20 st21">F</tspan><tspan x="34.9" y="0" class="st12 st20 st21">ORCE </tspan></text>
		<text transform="matrix(1 0 0 1 253.9103 170.2657)"><tspan x="0" y="0" class="st12 st20 st21">A</tspan><tspan x="6.6" y="0" class="st12 st20 st21">G</tspan><tspan x="13.9" y="0" class="st12 st20 st21">ILITY</tspan></text>
		<text transform="matrix(1 0 0 1 249.9948 183.9005)"><tspan x="0" y="0" class="st12 st13 st14">3R – </tspan><tspan x="17.2" y="0" class="st12 st13 st14">R</tspan><tspan x="21.6" y="0" class="st12 st13 st14">eskill, </tspan></text>
		<text transform="matrix(1 0 0 1 252.7572 194.7003)"><tspan x="0" y="0" class="st12 st13 st14">R</tspan><tspan x="4.4" y="0" class="st12 st13 st14">e</tspan><tspan x="9" y="0" class="st12 st13 st14">depl</tspan><tspan x="25.9" y="0" class="st12 st13 st14">o</tspan><tspan x="30.7" y="0" class="st12 st13 st14">y</tspan><tspan x="33.9" y="0" class="st12 st13 st14">, </tspan></text>
		<text transform="matrix(1 0 0 1 252.9999 205.5001)"><tspan x="0" y="0" class="st12 st13 st14">R</tspan><tspan x="4.4" y="0" class="st12 st13 st14">ebalance</tspan></text>
	</g>
	<text transform="matrix(1 0 0 1 291.2148 183.9005)" class="st12 st13 st14"> </text>
	<text transform="matrix(1 0 0 1 288.4516 194.7003)" class="st12 st13 st14"> </text>
	<path class="st22" d="M206.6,177.8"/>
	<g>
		<path class="st23" d="M318.2,178.8c-0.3,12.2-5.1,23.7-13.8,32.4c-8.9,8.9-20.8,13.9-33.5,13.9s-24.5-4.9-33.5-13.9
			c-8.7-8.7-13.6-20.2-13.8-32.4h-8.9l0,1h0c1.1,30.1,25.9,54.2,56.2,54.2c30.7,0,55.6-24.7,56.2-55.2H318.2z"/>
		<path class="st23" d="M223.7,176.8c0.2-12.3,5.1-23.8,13.8-32.5c8.9-8.9,20.8-13.9,33.5-13.9c12.6,0,24.5,4.9,33.5,13.9
			c8.7,8.7,13.6,20.2,13.8,32.5h8.9c-0.5-30.6-25.5-55.3-56.2-55.3c-30.3,0-55.1,24.1-56.2,54.2l0,1H223.7z"/>
	</g>
	<path id="SVGID_x5F_00000042705226417958625100000008573359142733021076_x5F_" class="st24" d="M222.7,176.9
		c0-26.9,21.8-48.6,48.6-48.6S320,150,320,176.9"/>
	<text>	<textPath  xlink:href="#SVGID_x5F_00000042705226417958625100000008573359142733021076_x5F_" startOffset="1.123%">
<tspan  class="st16" style="font-size:7px;">skills first/sbo</tspan>	</textPath>
</text>
	<path id="SVGID_x5F_00000173883535880519722240000007737202615387133111_x5F_" class="st24" d="M222.7,183.5
		c0,26.9,21.8,48.6,48.6,48.6s48.6-21.8,48.6-48.6"/>
	<text>	<textPath  xlink:href="#SVGID_x5F_00000173883535880519722240000007737202615387133111_x5F_" startOffset="5.038%">
<tspan  class="st16" style="font-size:7px;">work design</tspan>	</textPath>
</text>
	<g>
		<path class="st25" d="M330.6,178.8c-0.3,15.5-6.4,30.1-17.4,41.1c-11,11-25.6,17.2-41.2,17.4v9.4c37.3-0.5,67.5-30.7,68-68H330.6z
			"/>
		<path class="st25" d="M211.4,176.8c0.2-15.6,6.4-30.2,17.4-41.2c11-11,25.6-17.2,41.2-17.4v-9.4c-36.3,0.5-65.9,29.1-67.9,65h-0.1
			v3H211.4z"/>
		<path class="st25" d="M272,118.2c15.6,0.3,30.1,6.4,41.2,17.4c11,11,17.2,25.6,17.4,41.2h9.4c-0.5-37.3-30.7-67.6-68-68.1V118.2z"
			/>
		<path class="st25" d="M270,237.4c-15.5-0.3-30.1-6.4-41.2-17.4c-11-11-17.2-25.6-17.4-41.1h-9.5v3h0.1c2.1,35.9,31.7,64.5,67.9,65
			V237.4z"/>
	</g>
	<path id="SVGID_x5F_00000051346043805282165260000010752419696733988529_x5F_" class="st24" d="M205.4,183
		c0.8,16.3,7.8,30.9,18.6,41.8c10.6,10.6,24.9,17.5,40.8,18.5"/>
	<text>	<textPath  xlink:href="#SVGID_x5F_00000051346043805282165260000010752419696733988529_x5F_" startOffset="3.784%">
<tspan  style="font-family:'Gibson-Regular'; font-size:6px;">people</tspan>	</textPath>
</text>
	<path id="SVGID_x5F_00000090277203845428429050000012430918160311737253_x5F_" class="st24" d="M275.5,243.3
		c16.6-0.6,31.5-7.6,42.5-18.6c10.9-10.9,17.8-25.7,18.6-42.1"/>
	<text>	<textPath  xlink:href="#SVGID_x5F_00000090277203845428429050000012430918160311737253_x5F_" startOffset="1.953%">
<tspan  style="font-family:'Gibson-Regular'; font-size:6px;">culture</tspan>	</textPath>
</text>
	<path id="SVGID_x5F_00000109725063759176023730000007989755131052410525_x5F_" class="st24" d="M272.5,115.2
		c16.6,0.6,31.5,7.6,42.5,18.6c10.9,10.9,17.9,25.8,18.6,42.4"/>
	<text>	<textPath  xlink:href="#SVGID_x5F_00000109725063759176023730000007989755131052410525_x5F_" startOffset="27.171%">
<tspan  style="font-family:'Gibson-Regular'; font-size:6px;">leadership</tspan>	</textPath>
</text>
	<path id="SVGID_x5F_00000089572921487067265740000007718148386580856501_x5F_" class="st24" d="M208.4,175.4
		c0.8-16.2,7.8-30.9,18.5-41.6c10.7-10.7,25.2-17.6,41.3-18.5"/>
	<text>	<textPath  xlink:href="#SVGID_x5F_00000089572921487067265740000007718148386580856501_x5F_" startOffset="2.7345%">
<tspan  style="font-family:'Gibson-Regular'; font-size:6px;">Strategy</tspan>	</textPath>
</text>
	<line class="st0" x1="468.3" y1="130.6" x2="468.3" y2="156.2"/>
	<line class="st0" x1="174.2" y1="173.1" x2="139.4" y2="200.2"/>
	<g>
		<path class="st10" d="M174.8,181.4c4.8,0,8.7-3.9,8.7-8.7c0-4.8-3.9-8.7-8.7-8.7s-8.7,3.9-8.7,8.7
			C166.1,177.5,170,181.4,174.8,181.4"/>
		<circle class="st11" cx="174.8" cy="172.7" r="11"/>
	</g>
	<line class="st0" x1="369.2" y1="173.1" x2="403.9" y2="200.2"/>
	<g>
		<path class="st10" d="M368.9,181.4c4.8,0,8.7-3.9,8.7-8.7c0-4.8-3.9-8.7-8.7-8.7c-4.8,0-8.7,3.9-8.7,8.7
			C360.2,177.5,364.1,181.4,368.9,181.4"/>
		<circle class="st11" cx="368.9" cy="172.7" r="11"/>
	</g>
</g>
</svg>
