<?xml version="1.0" standalone="no"?>
<!DOCTYPE svg PUBLIC "-//W3C//DTD SVG 20010904//EN"
 "http://www.w3.org/TR/2001/REC-SVG-20010904/DTD/svg10.dtd">
<svg version="1.0" xmlns="http://www.w3.org/2000/svg"
 width="900.000000pt" height="900.000000pt" viewBox="0 0 900.000000 900.000000"
 preserveAspectRatio="xMidYMid meet">
<metadata>
Created by potrace 1.10, written by Peter Selinger 2001-2011
</metadata>
<g transform="translate(0.000000,900.000000) scale(0.100000,-0.100000)"
fill="#000000" stroke="none">
<path d="M4385 7851 c-36 -9 -67 -26 -120 -66 -22 -16 -386 -377 -810 -801
-582 -582 -777 -784 -800 -825 -28 -51 -29 -60 -29 -169 0 -108 1 -118 29
-168 37 -67 100 -130 167 -167 50 -28 60 -29 168 -29 109 0 118 1 169 29 40
22 215 191 687 663 348 347 638 632 644 632 6 0 298 -286 647 -636 387 -386
652 -644 677 -657 146 -77 312 -55 433 56 128 118 157 293 74 455 -15 29 -273
294 -794 815 -747 747 -812 810 -886 851 -38 21 -200 32 -256 17z"/>
<path d="M2890 3356 c-64 -18 -106 -42 -157 -89 -128 -118 -157 -293 -75 -453
22 -42 1526 -1558 1607 -1619 87 -66 101 -70 225 -70 124 0 137 4 225 70 51
38 1529 1516 1570 1570 55 71 70 119 70 220 0 69 -5 103 -20 136 -41 93 -115
170 -204 211 -36 16 -68 21 -141 22 -106 1 -153 -13 -223 -67 -21 -16 -314
-306 -652 -643 -337 -338 -618 -614 -625 -614 -6 0 -298 286 -647 636 -387
386 -652 644 -677 657 -84 44 -189 57 -276 33z"/>
</g>
</svg>
